<svg width="79" height="128" viewBox="0 0 79 128" fill="none" xmlns="http://www.w3.org/2000/svg">
<rect x="5" y="62" width="69" height="26" fill="white"/>
<path d="M14 33C14 30.7909 12.2091 29 10 29C7.79086 29 6 30.7909 6 33V62H14V33Z" fill="white"/>
<path d="M29 19C29 16.2386 26.7614 14 24 14C21.2386 14 19 16.2386 19 19V62H29V19Z" fill="white"/>
<path d="M44 9.5C44 7.01472 41.9853 5 39.5 5C37.0147 5 35 7.01472 35 9.5V62H44V9.5Z" fill="white"/>
<path d="M59 23.5C59 21.0147 56.9853 19 54.5 19C52.0147 19 50 21.0147 50 23.5V62H59V23.5Z" fill="white"/>
<path d="M74 87.5C74 92.2932 73.1076 97.0396 71.3738 101.468C69.6401 105.896 67.0988 109.92 63.8952 113.309C60.6916 116.699 56.8883 119.387 52.7026 121.222C48.5168 123.056 44.0306 124 39.5 124C34.9694 124 30.4832 123.056 26.2974 121.222C22.1117 119.387 18.3084 116.699 15.1048 113.309C11.9012 109.92 9.35994 105.896 7.62616 101.468C5.89237 97.0396 5 92.2932 5 87.5L39.5 87.5H74Z" fill="white"/>
<path d="M74 56.3079C74 55.0334 72.9668 54.0002 71.6923 54.0002C67.444 54.0002 64 57.4442 64 61.6926V84.0003H74V56.3079Z" fill="#848484"/>
<path d="M0 86.9998V89.9998H6V86.9998H0ZM6 31.9997C6 30.3428 4.65685 28.9997 3 28.9997C1.34315 28.9997 0 30.3428 0 31.9997H6ZM6 86.9998L6 31.9997H0L0 86.9998H6Z" fill="#5C5C5C"/>
<path d="M3 86.9998C3.9932 138.42 76 136.907 76 86.9998" stroke="#5C5C5C" stroke-width="6"/>
<path d="M16.5 60.5002L16.5 18.5002" stroke="#5C5C5C" stroke-width="6" stroke-linecap="round"/>
<path d="M32 61.0002L32 11.0002" stroke="#5C5C5C" stroke-width="6" stroke-linecap="round"/>
<path d="M47 61.0002L47 11.0002" stroke="#5C5C5C" stroke-width="6" stroke-linecap="round"/>
<path d="M59 83.0002C59 84.6571 60.3431 86.0002 62 86.0002C63.6569 86.0002 65 84.6571 65 83.0002L59 83.0002ZM65 25.0002L65 22.0002L59 22.0002L59 25.0002L65 25.0002ZM65 83.0002L65 25.0002L59 25.0002L59 83.0002L65 83.0002Z" fill="#5C5C5C"/>
<path d="M76 88L76 59" stroke="#5C5C5C" stroke-width="6" stroke-linecap="square"/>
<path d="M62 60.0003C62.4823 51.6378 76.4701 45.7352 75.9878 58.0328" stroke="#5C5C5C" stroke-width="6"/>
<path d="M16.5 19.9982C16.5 7.99984 33 9.99975 32 19.9982" stroke="#5C5C5C" stroke-width="6"/>
<path d="M3 32.9998C3 24.2903 16.5 25 16.5 33.4998" stroke="#5C5C5C" stroke-width="6"/>
<path d="M32 11C32 -0.61257 47.9229 1.32304 46.9578 11" stroke="#5C5C5C" stroke-width="6"/>
<path d="M47 23.9998C47 12.3872 62.9229 14.3228 61.9578 23.9998" stroke="#5C5C5C" stroke-width="6"/>
</svg>
