<svg width="79" height="128" viewBox="0 0 79 128" fill="none" xmlns="http://www.w3.org/2000/svg">
<path d="M20 21C20 18.2386 22.2386 16 25 16C27.7614 16 30 18.2386 30 21V62H20V21Z" fill="#FFDB1E"/>
<path d="M79 87V90H73V87H79ZM73 32C73 30.3431 74.3431 29 76 29C77.6569 29 79 30.3431 79 32H73ZM73 87V32H79V87H73Z" fill="#5C5C5C"/>
<path d="M76 87C75.0068 138.42 3 136.908 3 87" stroke="#5C5C5C" stroke-width="6"/>
<path d="M62.4996 60.5L62.4996 18.5" stroke="#5C5C5C" stroke-width="6" stroke-linecap="round"/>
<path d="M47 61L47 11" stroke="#5C5C5C" stroke-width="6" stroke-linecap="round"/>
<path d="M32.0001 61L32.0001 11" stroke="#5C5C5C" stroke-width="6" stroke-linecap="round"/>
<path d="M19.9996 83C19.9996 84.6569 18.6565 86 16.9996 86C15.3428 86 13.9996 84.6569 13.9996 83L19.9996 83ZM13.9996 25L13.9996 22L19.9996 22L19.9996 25L13.9996 25ZM13.9996 83L13.9996 25L19.9996 25L19.9996 83L13.9996 83Z" fill="#5C5C5C"/>
<path d="M3.00024 88L3.00024 58" stroke="#5C5C5C" stroke-width="6" stroke-linecap="square"/>
<path d="M16.9996 60C16.5173 51.6376 2.52949 45.7349 3.01182 58.0325" stroke="#5C5C5C" stroke-width="6"/>
<path d="M62.4996 19.9984C62.4996 8.00009 45.9996 10 46.9996 19.9984" stroke="#5C5C5C" stroke-width="6"/>
<path d="M76 32.9997C76 24.2903 62.5 25 62.5 33.4998" stroke="#5C5C5C" stroke-width="6"/>
<path d="M47 11C47 -0.612565 31.0771 1.32304 32.0422 11" stroke="#5C5C5C" stroke-width="6"/>
<path d="M32.0001 24C32.0001 12.3874 16.0773 14.323 17.0423 24" stroke="#5C5C5C" stroke-width="6"/>
</svg>
