<svg width="79" height="128" viewBox="0 0 79 128" fill="none" xmlns="http://www.w3.org/2000/svg">
<path d="M64.0043 30.9978C64.0043 28.2376 66.2419 26 69.0021 26C71.7623 26 73.9998 28.2376 73.9998 30.9978V60.9845H64.0043V30.9978Z" fill="#BD7DEF"/>
<path d="M79 87V90H73V87H79ZM73 32C73 30.3431 74.3431 29 76 29C77.6569 29 79 30.3431 79 32H73ZM73 87V32H79V87H73Z" fill="#5C5C5C"/>
<path d="M76 87C75.0068 138.42 3 136.908 3 87" stroke="#5C5C5C" stroke-width="6"/>
<path d="M62.4994 60.5L62.4994 18.5" stroke="#5C5C5C" stroke-width="6" stroke-linecap="round"/>
<path d="M46.9998 61L46.9998 11" stroke="#5C5C5C" stroke-width="6" stroke-linecap="round"/>
<path d="M31.9999 61L31.9999 11" stroke="#5C5C5C" stroke-width="6" stroke-linecap="round"/>
<path d="M19.9994 83C19.9994 84.6569 18.6562 86 16.9994 86C15.3425 86 13.9994 84.6569 13.9994 83L19.9994 83ZM13.9994 25L13.9994 22L19.9994 22L19.9994 25L13.9994 25ZM13.9994 83L13.9994 25L19.9994 25L19.9994 83L13.9994 83Z" fill="#5C5C5C"/>
<path d="M3 88L3 58" stroke="#5C5C5C" stroke-width="6" stroke-linecap="square"/>
<path d="M16.9994 60C16.5171 51.6376 2.52924 45.7349 3.01158 58.0325" stroke="#5C5C5C" stroke-width="6"/>
<path d="M62.4994 19.9984C62.4994 8.00009 45.9994 10 46.9994 19.9984" stroke="#5C5C5C" stroke-width="6"/>
<path d="M76 32.9997C76 24.2903 62.5 25 62.5 33.4998" stroke="#5C5C5C" stroke-width="6"/>
<path d="M46.9998 11C46.9998 -0.612565 31.0769 1.32304 32.0419 11" stroke="#5C5C5C" stroke-width="6"/>
<path d="M31.9999 24C31.9999 12.3874 16.0771 14.323 17.0421 24" stroke="#5C5C5C" stroke-width="6"/>
</svg>
