<svg width="79" height="128" viewBox="0 0 79 128" fill="none" xmlns="http://www.w3.org/2000/svg">
<path d="M34.0002 9C34.0002 6.23858 36.2388 4 39.0002 4H40.0002C42.7617 4 45.0002 6.23858 45.0002 9V62H34.0002V9Z" fill="#6FFB62"/>
<path d="M79 87V90H73V87H79ZM73 32C73 30.3431 74.3431 29 76 29C77.6569 29 79 30.3431 79 32H73ZM73 87V32H79V87H73Z" fill="#5C5C5C"/>
<path d="M76 87C75.0068 138.42 3 136.908 3 87" stroke="#5C5C5C" stroke-width="6"/>
<path d="M62.4995 60.5L62.4995 18.5" stroke="#5C5C5C" stroke-width="6" stroke-linecap="round"/>
<path d="M46.9999 61L46.9999 11" stroke="#5C5C5C" stroke-width="6" stroke-linecap="round"/>
<path d="M32.0001 61L32.0001 11" stroke="#5C5C5C" stroke-width="6" stroke-linecap="round"/>
<path d="M19.9995 83C19.9995 84.6569 18.6564 86 16.9995 86C15.3427 86 13.9995 84.6569 13.9995 83L19.9995 83ZM13.9995 25L13.9995 22L19.9995 22L19.9995 25L13.9995 25ZM13.9995 83L13.9995 25L19.9995 25L19.9995 83L13.9995 83Z" fill="#5C5C5C"/>
<path d="M3.00012 88L3.00012 58" stroke="#5C5C5C" stroke-width="6" stroke-linecap="square"/>
<path d="M16.9995 60C16.5172 51.6376 2.52936 45.7349 3.0117 58.0325" stroke="#5C5C5C" stroke-width="6"/>
<path d="M62.4995 19.9984C62.4995 8.00009 45.9995 10 46.9995 19.9984" stroke="#5C5C5C" stroke-width="6"/>
<path d="M76 32.9997C76 24.2903 62.5 25 62.5 33.4998" stroke="#5C5C5C" stroke-width="6"/>
<path d="M46.9999 11C46.9999 -0.612565 31.077 1.32304 32.042 11" stroke="#5C5C5C" stroke-width="6"/>
<path d="M32.0001 24C32.0001 12.3874 16.0773 14.323 17.0423 24" stroke="#5C5C5C" stroke-width="6"/>
</svg>
